<?xml version='1.0' encoding='iso-8859-1'?>
<svg version="1.1" xmlns="http://www.w3.org/2000/svg" viewBox="0 0 472.667 472.667" xmlns:xlink="http://www.w3.org/1999/xlink" enable-background="new 0 0 472.667 472.667">
  <g>
    <path d="m452.167,164.453h-3.67c-4.142,0-7.5,3.358-7.5,7.5s3.358,7.5 7.5,7.5h3.67c3.033,0 5.5,2.467 5.5,5.5v30.881c0,3.033-2.467,5.5-5.5,5.5h-26.17v-132.5c0-28.949-23.551-52.5-52.5-52.5h-46.374l-1.073-8.584c-1.82-14.565-15.244-26.416-29.922-26.416h-119.587c-14.679,0-28.103,11.85-29.923,26.416l-1.073,8.584h-46.375c-28.949,0-52.5,23.551-52.5,52.5v132.5h-26.17c-3.033,0-5.5-2.467-5.5-5.5v-30.881c0-3.033 2.467-5.5 5.5-5.5h3.67c4.142,0 7.5-3.358 7.5-7.5s-3.358-7.5-7.5-7.5h-3.67c-11.304,0-20.5,9.196-20.5,20.5v30.881c0,11.304 9.196,20.5 20.5,20.5h26.17v165.25c0,6.963 4.098,12.972 10,15.787v46.463c0,4.142 3.358,7.5 7.5,7.5h64.144c4.142,0 7.5-3.358 7.5-7.5v-22.25c0-4.142-3.358-7.5-7.5-7.5s-7.5,3.358-7.5,7.5v14.75h-49.144v-37.25h329.326v37.25h-49.144v-14.75c0-4.142-3.358-7.5-7.5-7.5s-7.5,3.358-7.5,7.5v22.25c0,4.142 3.358,7.5 7.5,7.5h64.144c4.142,0 7.5-3.358 7.5-7.5v-46.463c5.902-2.816 10-8.824 10-15.787v-165.25h26.17c11.304,0 20.5-9.196 20.5-20.5v-30.881c0.001-11.304-9.195-20.5-20.499-20.5zm-126.07-68.12c0.037,0 84.9,0 84.9,0v125h-167.164v-125h82.264zm47.4-45c18.11,0 33.261,12.904 36.745,30h-77.494l-3.75-30h44.499zm-196.956-35h119.586c7.252,0 14.139,6.08 15.039,13.276l6.466,51.724h-162.596l6.465-51.724c0.9-7.196 7.787-13.276 15.04-13.276zm-77.371,35h44.499l-3.75,30h-77.494c3.484-17.096 18.636-30 36.745-30zm-37.5,45h167.163v125h-167.163v-125zm349.327,266.375h-51.033c-9.649,5.68434e-14-17.5-7.851-17.5-17.5v-17.5h46.033c4.142,0 7.5-3.358 7.5-7.5s-3.358-7.5-7.5-7.5h-53.533c-4.142,0-7.5,3.358-7.5,7.5v25c0,17.92 14.58,32.5 32.5,32.5h51.033v23.875c0,1.355-1.145,2.5-2.5,2.5h-344.327c-1.355,0-2.5-1.145-2.5-2.5v-23.875h51.033c17.92,0 32.5-14.58 32.5-32.5v-25c0-4.142-3.358-7.5-7.5-7.5h-53.533c-4.142,0-7.5,3.358-7.5,7.5s3.358,7.5 7.5,7.5h46.033v17.5c0,9.649-7.851,17.5-17.5,17.5h-51.033v-126.375h349.326v126.375z"/>
    <path d="m160.203,320.208c0,4.142 3.358,7.5 7.5,7.5h137.261c4.142,0 7.5-3.358 7.5-7.5s-3.358-7.5-7.5-7.5h-137.261c-4.142,0-7.5,3.358-7.5,7.5z"/>
  </g>
</svg>
