<?xml version="1.0" encoding="iso-8859-1"?>
<!-- Generator: Adobe Illustrator 19.0.0, SVG Export Plug-In . SVG Version: 6.00 Build 0)  -->
<svg version="1.1" id="Layer_1" xmlns="http://www.w3.org/2000/svg" xmlns:xlink="http://www.w3.org/1999/xlink" x="0px" y="0px"
	 viewBox="0 0 488 488" style="enable-background:new 0 0 488 488;" xml:space="preserve">
<g transform="translate(0 -540.36)">
	<g>
		<g>
			<path d="M96.5,834.56c19.7,0,35.2-15.5,35.3-35.3c0-19.5-15.9-35.3-35.3-35.3c-19.8,0-35.3,15.5-35.3,35.3
				C61.2,819.36,76.4,834.56,96.5,834.56z M96.5,784.06c8.2,0,15.2,7,15.3,15.3c0,8.7-6.6,15.3-15.3,15.3c-9.2,0-15.3-6.2-15.3-15.3
				C81.2,790.66,87.8,784.06,96.5,784.06z"/>
			<path d="M391.1,834.56c20.3,0,35.7-15.2,35.7-35.3c0-19.5-16-35.3-35.7-35.3c-19.2,0-34.8,15.9-34.8,35.3
				C356.3,819.06,371.6,834.56,391.1,834.56z M391.1,784.06c8.8,0,15.7,6.7,15.7,15.3c0,8.9-6.6,15.3-15.7,15.3
				c-8.4,0-14.8-6.6-14.8-15.3C376.3,791.06,383.1,784.06,391.1,784.06z"/>
			<path d="M478,856.46L478,856.46l-10.3,0v-112.8c0-3.4-1.7-6.5-4.5-8.3l-28-18.6l-39.6-119.6c-1.4-4.1-5.2-6.9-9.5-6.9h-62.4
				c-4.2-12.1-16.2-21.3-29.6-21.3h-101c-13.3,0-24.9,9.1-28.9,21.3h-63.1c-4.3,0-8.1,2.8-9.5,6.9L52,716.76l-27.3,18.6
				c-2.7,1.9-4.4,5-4.4,8.3v112.8H10c-5.5,0-10,4.5-10,10v41c0,5.5,4.5,10,10,10h51v72.3c0,5.5,4.5,10,10,10h50.5
				c5.5,0,10-4.5,10-10v-72.4h224.2v72.3c0,5.5,4.5,10,10,10H417c5.5,0,10-4.5,10-10v-72.3h51c5.5,0,10-4.5,10-10v-41
				C488,860.96,483.5,856.46,478,856.46z M193.1,588.96H294c5.6,0,11.2,5.2,11.2,10.5c0,5.7-5.1,10.5-11.2,10.5H193.1
				c-5.9,0-10.3-4.5-10.3-10.5C182.8,594.46,187,588.96,193.1,588.96z M108.4,610.26L108.4,610.26h56.1
				c4.2,11.8,15.6,20.5,28.6,20.5h101.7c12.7,0,24.2-8.8,28.5-20.5h55.4l34.1,102.8H74.3L108.4,610.26z M63.5,733.06h360.2
				l23.9,15.8v107.5H40.3c0,0,0-107.5,0-107.5L63.5,733.06z M111.5,979.76H81v-61.9h30.5V979.76z M407,979.76h-31.3v-61.9H407
				V979.76z M20,897.36v-21h10.3h427.3h10.3v21H20z"/>
		</g>
	</g>
</g>
<g>
</g>
<g>
</g>
<g>
</g>
<g>
</g>
<g>
</g>
<g>
</g>
<g>
</g>
<g>
</g>
<g>
</g>
<g>
</g>
<g>
</g>
<g>
</g>
<g>
</g>
<g>
</g>
<g>
</g>
</svg>
